<svg width="25" height="25" viewBox="0 0 25 25" fill="none" xmlns="http://www.w3.org/2000/svg">
<path d="M5.21615 3.05135L5.03065 21.0504C5.02934 21.2326 5.07776 21.4118 5.17069 21.5685C5.26362 21.7253 5.39755 21.8538 5.55806 21.9401C5.71856 22.0264 5.89957 22.0673 6.0816 22.0584C6.26362 22.0495 6.43977 21.9911 6.59108 21.8895L19.6831 13.024C20.226 12.6565 20.2352 11.7586 19.7001 11.3791L6.79354 2.24556C6.64467 2.13985 6.46969 2.07695 6.28759 2.06371C6.10549 2.05046 5.92324 2.08737 5.76065 2.17043C5.59805 2.25349 5.46133 2.37952 5.36533 2.53482C5.26934 2.69013 5.21774 2.86878 5.21615 3.05135Z" fill="#D0BFBA"/>
</svg>
