<svg width="198" height="48" viewBox="0 0 198 48" fill="none" xmlns="http://www.w3.org/2000/svg">
<g filter="url(#filter0_d_26_596)">
<rect x="4" width="190" height="40" rx="10" fill="url(#paint0_linear_26_596)"/>
</g>
<path d="M50.0323 12.8105C50.781 12.8105 51.4873 12.9375 52.1514 13.1914C52.822 13.4453 53.4079 13.7969 53.9092 14.2461C54.4105 14.6953 54.7914 15.2161 55.0518 15.8086C55.1104 15.9388 55.1397 16.0723 55.1397 16.209C55.1397 16.4759 55.042 16.707 54.8467 16.9023C54.6579 17.0911 54.4301 17.1855 54.1631 17.1855C53.9873 17.1855 53.8116 17.1302 53.6358 17.0195C53.46 16.9023 53.3363 16.7624 53.2647 16.5996C53.0173 16.0397 52.6039 15.5938 52.0245 15.2617C51.4515 14.9297 50.7875 14.7637 50.0323 14.7637C49.6612 14.7637 49.2673 14.8092 48.8506 14.9004C48.4405 14.9915 48.0531 15.1315 47.6885 15.3203C47.3239 15.5026 47.0277 15.7337 46.7998 16.0137C46.572 16.2936 46.458 16.6191 46.458 16.9902C46.458 17.2897 46.5557 17.5501 46.751 17.7715C46.9463 17.9863 47.1644 18.1556 47.4053 18.2793C47.9717 18.5592 48.5967 18.7546 49.2803 18.8652C49.9704 18.9759 50.667 19.0833 51.3702 19.1875C52.0733 19.2917 52.7276 19.474 53.333 19.7344C53.7172 19.8971 54.085 20.1217 54.4366 20.4082C54.7881 20.6947 55.0746 21.043 55.2959 21.4531C55.5173 21.8633 55.628 22.3451 55.628 22.8984C55.628 23.6146 55.4554 24.2428 55.1104 24.7832C54.7653 25.3236 54.3129 25.7728 53.753 26.1309C53.1931 26.4889 52.5843 26.7591 51.9268 26.9414C51.2758 27.1172 50.6377 27.2051 50.0127 27.2051C49.1664 27.2051 48.3721 27.0716 47.6299 26.8047C46.8877 26.5312 46.2399 26.1471 45.6866 25.6523C45.1332 25.151 44.71 24.5651 44.417 23.8945C44.3584 23.7643 44.3291 23.6341 44.3291 23.5039C44.3291 23.237 44.4235 23.0091 44.6123 22.8203C44.8077 22.625 45.0388 22.5273 45.3057 22.5273C45.488 22.5273 45.667 22.5859 45.8428 22.7031C46.0186 22.8138 46.139 22.9538 46.2041 23.123C46.4906 23.7806 46.9756 24.3014 47.6592 24.6855C48.3428 25.0632 49.1273 25.252 50.0127 25.252C50.5661 25.252 51.1228 25.1706 51.6827 25.0078C52.2426 24.8385 52.7113 24.5814 53.0889 24.2363C53.473 23.8848 53.6651 23.4388 53.6651 22.8984C53.6651 22.5534 53.5479 22.2702 53.3135 22.0488C53.0857 21.821 52.835 21.6484 52.5616 21.5312C51.9431 21.2643 51.2823 21.082 50.5791 20.9844C49.876 20.8802 49.1761 20.7728 48.4795 20.6621C47.7829 20.5449 47.1319 20.3333 46.5264 20.0273C46.0121 19.7669 45.5433 19.3893 45.1202 18.8945C44.7035 18.3932 44.4952 17.7585 44.4952 16.9902C44.4952 16.3132 44.6579 15.7174 44.9834 15.2031C45.3155 14.6823 45.7517 14.2461 46.292 13.8945C46.8389 13.5365 47.4379 13.2663 48.0889 13.084C48.7399 12.9017 49.3877 12.8105 50.0323 12.8105ZM64.1287 25.6816C63.7771 26.0202 63.3572 26.362 62.8689 26.707C62.3806 27.0456 61.8077 27.2148 61.1502 27.2148C60.2973 27.2148 59.5877 26.9902 59.0212 26.541C58.4548 26.0853 58.0382 25.5579 57.7712 24.959C57.5629 24.4837 57.436 24.015 57.3904 23.5527C57.3513 23.084 57.3318 22.6445 57.3318 22.2344V17.3027C57.3318 17.0358 57.4262 16.8079 57.615 16.6191C57.8103 16.4238 58.0414 16.3262 58.3084 16.3262C58.5753 16.3262 58.8031 16.4238 58.992 16.6191C59.1873 16.8079 59.2849 17.0358 59.2849 17.3027V22.2344C59.2849 22.612 59.3012 22.9668 59.3337 23.2988C59.3728 23.6243 59.4477 23.9108 59.5584 24.1582C59.6886 24.4447 59.8839 24.7018 60.1443 24.9297C60.4047 25.151 60.7335 25.2617 61.1306 25.2617C62.0942 25.2617 62.8331 24.8939 63.3474 24.1582C63.8683 23.4225 64.1254 22.4297 64.1189 21.1797L64.1091 17.2832C64.1091 17.0163 64.2035 16.7884 64.3923 16.5996C64.5877 16.4043 64.8188 16.3066 65.0857 16.3066C65.3591 16.3066 65.5903 16.4043 65.7791 16.5996C65.9679 16.7884 66.0623 17.0195 66.0623 17.293L66.0818 26.2676C66.0818 26.5345 66.0069 26.7656 65.8572 26.9609C65.714 27.1497 65.5089 27.2441 65.242 27.2441C64.975 27.2441 64.7699 27.1497 64.6267 26.9609C64.4835 26.7656 64.3728 26.5345 64.2947 26.2676L64.1287 25.6816ZM74.2309 17.5371C74.2309 18.0579 73.9803 18.3477 73.479 18.4062C73.2967 18.4258 73.0656 18.3672 72.7856 18.2305C72.5057 18.0872 72.2225 18.0156 71.936 18.0156C71.3696 18.0156 70.9204 18.1621 70.5884 18.4551C70.2563 18.7415 70.0187 19.1289 69.8755 19.6172C69.7322 20.1055 69.6606 20.6523 69.6606 21.2578V26.2969C69.6606 26.5833 69.5727 26.8112 69.397 26.9805C69.2277 27.1497 68.9901 27.2344 68.6841 27.2344C68.3846 27.2344 68.147 27.1497 67.9712 26.9805C67.7954 26.8112 67.7075 26.5801 67.7075 26.2871V17.293C67.7075 17 67.7791 16.7591 67.9223 16.5703C68.0721 16.3815 68.2739 16.2871 68.5278 16.2871C68.6776 16.2871 68.8501 16.3522 69.0454 16.4824C69.2472 16.6061 69.3872 16.821 69.4653 17.127L69.563 17.8301C69.6476 17.6478 69.8104 17.4362 70.0512 17.1953C70.2921 16.9544 70.5786 16.7461 70.9106 16.5703C71.2427 16.388 71.5877 16.2969 71.9458 16.2969C72.6098 16.2969 73.1567 16.375 73.5864 16.5312C74.0161 16.681 74.2309 17.0163 74.2309 17.5371ZM85.593 21.7656C85.593 22.5013 85.4562 23.2174 85.1828 23.9141C84.9159 24.6107 84.5122 25.2259 83.9719 25.7598C83.4966 26.222 82.9497 26.5801 82.3312 26.834C81.7128 27.0879 81.0715 27.2148 80.4074 27.2148C79.7303 27.2148 79.1281 27.0716 78.6008 26.7852C78.0799 26.4987 77.6079 26.1113 77.1848 25.623V29.7344C77.1848 30.0013 77.0871 30.2292 76.8918 30.418C76.703 30.6133 76.4751 30.7109 76.2082 30.7109C75.9413 30.7109 75.7102 30.6133 75.5148 30.418C75.326 30.2292 75.2316 30.0013 75.2316 29.7344V17.2637C75.2316 16.9967 75.326 16.7689 75.5148 16.5801C75.7102 16.3848 75.9413 16.2871 76.2082 16.2871C76.4751 16.2871 76.6737 16.3848 76.8039 16.5801C76.9406 16.7689 77.0285 16.9967 77.0676 17.2637L77.1848 18.0547C77.5559 17.5208 78.0441 17.1009 78.6496 16.7949C79.2616 16.4889 79.8703 16.3359 80.4758 16.3359C81.2115 16.3359 81.8885 16.4824 82.507 16.7754C83.132 17.0684 83.6757 17.4688 84.1379 17.9766C84.6001 18.4779 84.9582 19.054 85.2121 19.7051C85.466 20.3561 85.593 21.043 85.593 21.7656ZM80.4953 18.2891C80.0721 18.2891 79.6522 18.3835 79.2355 18.5723C78.8189 18.7546 78.4641 19.0085 78.1711 19.334C77.8781 19.653 77.6503 20.0339 77.4875 20.4766C77.3312 20.9128 77.2531 21.3587 77.2531 21.8145C77.2531 22.4395 77.3898 23.0156 77.6633 23.543C77.9367 24.0703 78.3143 24.4935 78.7961 24.8125C79.2779 25.1315 79.828 25.291 80.4465 25.291C81.065 25.291 81.6151 25.125 82.0969 24.793C82.5786 24.4544 82.9562 24.0182 83.2297 23.4844C83.5096 22.944 83.6496 22.3711 83.6496 21.7656C83.6496 21.1536 83.5129 20.584 83.2395 20.0566C82.966 19.5293 82.5917 19.1029 82.1164 18.7773C81.6411 18.4518 81.1008 18.2891 80.4953 18.2891ZM93.3222 17.5371C93.3222 18.0579 93.0715 18.3477 92.5702 18.4062C92.3879 18.4258 92.1568 18.3672 91.8769 18.2305C91.5969 18.0872 91.3137 18.0156 91.0273 18.0156C90.4609 18.0156 90.0116 18.1621 89.6796 18.4551C89.3476 18.7415 89.1099 19.1289 88.9667 19.6172C88.8235 20.1055 88.7519 20.6523 88.7519 21.2578V26.2969C88.7519 26.5833 88.664 26.8112 88.4882 26.9805C88.3189 27.1497 88.0813 27.2344 87.7753 27.2344C87.4758 27.2344 87.2382 27.1497 87.0624 26.9805C86.8866 26.8112 86.7987 26.5801 86.7987 26.2871V17.293C86.7987 17 86.8704 16.7591 87.0136 16.5703C87.1633 16.3815 87.3652 16.2871 87.6191 16.2871C87.7688 16.2871 87.9413 16.3522 88.1366 16.4824C88.3385 16.6061 88.4784 16.821 88.5566 17.127L88.6542 17.8301C88.7389 17.6478 88.9016 17.4362 89.1425 17.1953C89.3834 16.9544 89.6698 16.7461 90.0019 16.5703C90.3339 16.388 90.679 16.2969 91.037 16.2969C91.7011 16.2969 92.248 16.375 92.6777 16.5312C93.1073 16.681 93.3222 17.0163 93.3222 17.5371ZM95.3288 15.3008C95.0293 15.3008 94.7851 15.2096 94.5963 15.0273C94.4075 14.8385 94.3099 14.6074 94.3034 14.334L94.2838 13.5918C94.2838 13.3444 94.3945 13.1458 94.6159 12.9961C94.8372 12.8398 95.0488 12.7617 95.2506 12.7617C95.5241 12.7617 95.7519 12.8561 95.9342 13.0449C96.123 13.2337 96.2207 13.4616 96.2272 13.7285L96.237 14.3145C96.237 14.5684 96.1523 14.7962 95.983 14.998C95.8138 15.1999 95.5957 15.3008 95.3288 15.3008ZM94.2741 17.1465C94.2741 16.8991 94.3782 16.6973 94.5866 16.541C94.7949 16.3848 94.9967 16.3066 95.192 16.3066C95.4785 16.3066 95.7226 16.3913 95.9245 16.5605C96.1263 16.7298 96.2272 16.9544 96.2272 17.2344V17.2441L96.2467 26.2871C96.2467 26.5475 96.1491 26.7689 95.9538 26.9512C95.7649 27.1335 95.5371 27.2246 95.2702 27.2246C94.9967 27.2246 94.7656 27.1335 94.5768 26.9512C94.388 26.7624 94.2936 26.5378 94.2936 26.2773L94.2741 17.1465ZM102.833 16.2871C103.764 16.2871 104.607 16.4922 105.363 16.9023C106.124 17.306 106.688 17.8529 107.052 18.543C107.13 18.6797 107.169 18.8359 107.169 19.0117C107.169 19.2786 107.072 19.5098 106.876 19.7051C106.688 19.8939 106.46 19.9883 106.193 19.9883C106.03 19.9883 105.861 19.9362 105.685 19.832C105.516 19.7214 105.395 19.5944 105.324 19.4512C105.109 19.0475 104.786 18.7448 104.357 18.543C103.927 18.3411 103.416 18.2402 102.824 18.2402C102.479 18.2402 102.088 18.2858 101.652 18.377C101.216 18.4681 100.838 18.6146 100.519 18.8164C100.2 19.0182 100.04 19.2917 100.04 19.6367C100.04 19.8906 100.171 20.0924 100.431 20.2422C100.698 20.3854 101.023 20.4961 101.408 20.5742C101.798 20.6523 102.189 20.7109 102.579 20.75C102.97 20.7826 103.289 20.8118 103.536 20.8379C104.018 20.89 104.494 20.9714 104.962 21.082C105.431 21.1862 105.861 21.3424 106.251 21.5508C106.642 21.7591 106.951 22.0423 107.179 22.4004C107.413 22.7585 107.531 23.2142 107.531 23.7676C107.531 24.5553 107.303 25.1999 106.847 25.7012C106.391 26.2025 105.809 26.5736 105.099 26.8145C104.389 27.0553 103.647 27.1758 102.872 27.1758C101.811 27.1758 100.844 26.9674 99.972 26.5508C99.1061 26.1276 98.4649 25.5124 98.0482 24.7051C97.9701 24.5488 97.931 24.3958 97.931 24.2461C97.931 23.9792 98.0254 23.7513 98.2142 23.5625C98.4095 23.3672 98.6407 23.2695 98.9076 23.2695C99.0768 23.2695 99.2461 23.3249 99.4154 23.4355C99.5912 23.5397 99.7149 23.6667 99.7865 23.8164C100.04 24.3112 100.431 24.6693 100.958 24.8906C101.492 25.112 102.127 25.2227 102.863 25.2227C103.253 25.2227 103.657 25.1803 104.074 25.0957C104.497 25.0046 104.852 24.8516 105.138 24.6367C105.431 24.4219 105.577 24.1289 105.577 23.7578C105.577 23.4714 105.451 23.2663 105.197 23.1426C104.949 23.0124 104.65 22.9277 104.298 22.8887C103.953 22.8496 103.631 22.8138 103.331 22.7812C102.758 22.7227 102.166 22.6478 101.554 22.5566C100.942 22.459 100.372 22.306 99.8451 22.0977C99.3242 21.8893 98.9011 21.5898 98.5755 21.1992C98.25 20.8086 98.0873 20.2878 98.0873 19.6367C98.0873 19.0508 98.2272 18.5462 98.5072 18.123C98.7936 17.6999 99.1712 17.3548 99.64 17.0879C100.109 16.8145 100.62 16.6126 101.173 16.4824C101.733 16.3522 102.286 16.2871 102.833 16.2871ZM113.981 16.3359C114.846 16.3359 115.641 16.5508 116.363 16.9805C117.086 17.4102 117.665 17.9896 118.102 18.7188C118.544 19.4414 118.766 20.2454 118.766 21.1309C118.766 21.3132 118.756 21.4987 118.736 21.6875C118.71 21.9284 118.6 22.1335 118.404 22.3027C118.216 22.4655 118.001 22.5469 117.76 22.5469L110.934 22.5566C111.044 23.0254 111.253 23.4648 111.559 23.875C111.865 24.2852 112.236 24.6172 112.672 24.8711C113.115 25.125 113.596 25.252 114.117 25.252C114.677 25.252 115.178 25.1152 115.621 24.8418C116.064 24.5684 116.409 24.2526 116.656 23.8945C116.734 23.7708 116.852 23.6667 117.008 23.582C117.171 23.4974 117.324 23.4551 117.467 23.4551C117.734 23.4551 117.962 23.5527 118.15 23.748C118.346 23.9434 118.443 24.1745 118.443 24.4414C118.443 24.6497 118.385 24.8353 118.268 24.998C117.864 25.5905 117.307 26.1048 116.598 26.541C115.895 26.9707 115.078 27.1855 114.147 27.1855C113.398 27.1855 112.701 27.0391 112.057 26.7461C111.419 26.4531 110.862 26.0527 110.387 25.5449C109.912 25.0371 109.54 24.4544 109.274 23.7969C109.013 23.1328 108.883 22.4329 108.883 21.6973C108.883 20.9876 109.013 20.3138 109.274 19.6758C109.534 19.0312 109.895 18.4583 110.357 17.957C110.826 17.4557 111.37 17.0618 111.988 16.7754C112.607 16.4824 113.271 16.3359 113.981 16.3359ZM116.754 20.5938C116.63 19.9557 116.311 19.4121 115.797 18.9629C115.283 18.5137 114.677 18.2891 113.981 18.2891C113.271 18.2891 112.643 18.5202 112.096 18.9824C111.555 19.4447 111.191 19.985 111.002 20.6035L116.754 20.5938ZM126.128 27C125.862 27 125.63 26.9056 125.435 26.7168C125.246 26.5215 125.152 26.2904 125.152 26.0234L125.123 13.9043C125.116 13.8457 125.113 13.7871 125.113 13.7285C125.113 13.6374 125.132 13.5495 125.171 13.4648C125.217 13.3802 125.269 13.2923 125.328 13.2012C125.484 12.9473 125.709 12.8203 126.001 12.8203C126.47 12.8203 126.792 13.0026 126.968 13.3672L132.193 21.8926L137.027 13.3574C137.222 13.0319 137.486 12.8691 137.818 12.8691C138.098 12.8691 138.342 12.9603 138.55 13.1426C138.759 13.3249 138.863 13.5592 138.863 13.8457V26.0625C138.863 26.3294 138.765 26.5605 138.57 26.7559C138.381 26.9447 138.153 27.0391 137.886 27.0391C137.619 27.0391 137.388 26.9447 137.193 26.7559C137.004 26.5605 136.91 26.3294 136.91 26.0625V17.332L133.072 24.3047C133 24.4219 132.89 24.5358 132.74 24.6465C132.59 24.7507 132.427 24.8027 132.251 24.8027C131.874 24.8027 131.584 24.6465 131.382 24.334L127.076 17.293L127.105 26.0137V26.0234C127.105 26.2904 127.007 26.5215 126.812 26.7168C126.623 26.9056 126.395 27 126.128 27ZM145.059 16.3359C145.925 16.3359 146.719 16.5508 147.442 16.9805C148.164 17.4102 148.744 17.9896 149.18 18.7188C149.623 19.4414 149.844 20.2454 149.844 21.1309C149.844 21.3132 149.834 21.4987 149.815 21.6875C149.789 21.9284 149.678 22.1335 149.483 22.3027C149.294 22.4655 149.079 22.5469 148.838 22.5469L142.012 22.5566C142.123 23.0254 142.331 23.4648 142.637 23.875C142.943 24.2852 143.314 24.6172 143.75 24.8711C144.193 25.125 144.675 25.252 145.196 25.252C145.755 25.252 146.257 25.1152 146.699 24.8418C147.142 24.5684 147.487 24.2526 147.735 23.8945C147.813 23.7708 147.93 23.6667 148.086 23.582C148.249 23.4974 148.402 23.4551 148.545 23.4551C148.812 23.4551 149.04 23.5527 149.229 23.748C149.424 23.9434 149.522 24.1745 149.522 24.4414C149.522 24.6497 149.463 24.8353 149.346 24.998C148.942 25.5905 148.386 26.1048 147.676 26.541C146.973 26.9707 146.156 27.1855 145.225 27.1855C144.476 27.1855 143.78 27.0391 143.135 26.7461C142.497 26.4531 141.94 26.0527 141.465 25.5449C140.99 25.0371 140.619 24.4544 140.352 23.7969C140.091 23.1328 139.961 22.4329 139.961 21.6973C139.961 20.9876 140.091 20.3138 140.352 19.6758C140.612 19.0312 140.974 18.4583 141.436 17.957C141.905 17.4557 142.448 17.0618 143.067 16.7754C143.685 16.4824 144.349 16.3359 145.059 16.3359ZM147.832 20.5938C147.709 19.9557 147.39 19.4121 146.875 18.9629C146.361 18.5137 145.755 18.2891 145.059 18.2891C144.349 18.2891 143.721 18.5202 143.174 18.9824C142.634 19.4447 142.269 19.985 142.08 20.6035L147.832 20.5938ZM151.87 13.7188H151.88C152.121 13.7188 152.352 13.8034 152.573 13.9727C152.795 14.1354 152.905 14.3535 152.905 14.627L152.632 22.9375C152.632 23.1719 152.573 23.3835 152.456 23.5723C152.339 23.7546 152.147 23.8457 151.88 23.8457C151.619 23.8457 151.431 23.7546 151.313 23.5723C151.196 23.3835 151.138 23.1719 151.138 22.9375L150.845 14.627C150.845 14.3535 150.955 14.1354 151.177 13.9727C151.405 13.8099 151.636 13.7253 151.87 13.7188ZM151.929 24.8418C152.254 24.8418 152.531 24.959 152.759 25.1934C152.993 25.4212 153.11 25.6979 153.11 26.0234C153.11 26.349 152.993 26.6289 152.759 26.8633C152.531 27.0911 152.254 27.2051 151.929 27.2051C151.603 27.2051 151.323 27.0911 151.089 26.8633C150.861 26.6289 150.747 26.349 150.747 26.0234C150.747 25.6979 150.861 25.4212 151.089 25.1934C151.323 24.959 151.603 24.8418 151.929 24.8418Z" fill="white"/>
<defs>
<filter id="filter0_d_26_596" x="0" y="0" width="198" height="48" filterUnits="userSpaceOnUse" color-interpolation-filters="sRGB">
<feFlood flood-opacity="0" result="BackgroundImageFix"/>
<feColorMatrix in="SourceAlpha" type="matrix" values="0 0 0 0 0 0 0 0 0 0 0 0 0 0 0 0 0 0 127 0" result="hardAlpha"/>
<feOffset dy="4"/>
<feGaussianBlur stdDeviation="2"/>
<feComposite in2="hardAlpha" operator="out"/>
<feColorMatrix type="matrix" values="0 0 0 0 0 0 0 0 0 0 0 0 0 0 0 0 0 0 0.25 0"/>
<feBlend mode="normal" in2="BackgroundImageFix" result="effect1_dropShadow_26_596"/>
<feBlend mode="normal" in="SourceGraphic" in2="effect1_dropShadow_26_596" result="shape"/>
</filter>
<linearGradient id="paint0_linear_26_596" x1="4" y1="20" x2="194" y2="20" gradientUnits="userSpaceOnUse">
<stop stop-color="#ED7070"/>
<stop offset="0.16" stop-color="#EA8B65"/>
<stop offset="0.31" stop-color="#F1B575"/>
<stop offset="0.49" stop-color="#D7CB86"/>
<stop offset="0.65" stop-color="#C6CC99"/>
<stop offset="0.8" stop-color="#B5CBB6"/>
<stop offset="1" stop-color="#C1B9E1"/>
</linearGradient>
</defs>
</svg>
