<svg width="66" height="67" viewBox="0 0 66 67" fill="none" xmlns="http://www.w3.org/2000/svg">
<ellipse cx="32.5766" cy="33.457" rx="32.5766" ry="33.457" fill="white"/>
<g clip-path="url(#clip0_23_25518)">
<path d="M33.1637 55.4927C32.4043 55.4927 31.6449 55.4419 30.8855 55.3404C30.1261 55.2389 29.3668 55.1036 28.6074 54.9344C25.7019 57.1335 22.5078 57.9205 19.0252 57.2952C15.5426 56.67 12.8755 54.7666 11.0239 51.5851C9.53951 49.0815 9.06142 46.3919 9.58969 43.5161C10.118 40.6404 11.3891 38.2214 13.4031 36.2592V36.1069C11.3561 34.1785 10.0849 31.8021 9.58969 28.9778C9.09444 26.1535 9.55668 23.4889 10.9764 20.984C12.198 18.8526 13.8819 17.2374 16.028 16.1386C18.1741 15.0397 20.4357 14.6588 22.8129 14.9957C23.8695 13.0673 25.3143 11.5537 27.1474 10.4548C28.9805 9.35594 30.9859 8.80583 33.1637 8.80448C35.3415 8.80312 37.3476 9.35323 39.182 10.4548C41.0164 11.5564 42.4606 13.07 43.5145 14.9957C45.8917 14.6574 48.1533 15.0384 50.2994 16.1386C52.4455 17.2388 54.1293 18.8539 55.351 20.984C56.7707 23.4876 57.2329 26.1522 56.7377 28.9778C56.2424 31.8035 54.9713 34.1798 52.9242 36.1069V36.2592C54.9383 38.2214 56.2094 40.6404 56.7377 43.5161C57.2659 46.3919 56.7872 49.0815 55.3014 51.5851C53.4525 54.7653 50.7861 56.6687 47.3021 57.2952C43.8182 57.9218 40.6242 57.1349 37.72 54.9344C36.9606 55.1036 36.2012 55.2389 35.4418 55.3404C34.6825 55.4419 33.9231 55.4927 33.1637 55.4927ZM33.1637 51.4328C37.5879 51.4328 41.3353 49.8596 44.4059 46.7133C47.4765 43.5669 49.0117 39.7269 49.0117 35.1935C49.0117 34.2123 48.9378 33.2731 48.7899 32.3759C48.642 31.4787 48.4188 30.6079 48.1203 29.7634C47.1628 30.4401 46.1063 30.9645 44.9507 31.3366C43.7951 31.7088 42.59 31.8948 41.3353 31.8948C37.9676 31.8948 35.1038 30.6857 32.7437 28.2674C30.3837 25.849 29.203 22.9138 29.2017 19.4616C25.7679 20.3412 22.9285 22.2358 20.6833 25.1453C18.4382 28.0549 17.3156 31.4043 17.3156 35.1935C17.3156 39.7269 18.8509 43.5669 21.9215 46.7133C24.992 49.8596 28.7394 51.4328 33.1637 51.4328ZM27.2207 39.7608C26.5273 39.7608 25.9409 39.5152 25.4615 39.0239C24.9821 38.5327 24.7431 37.9325 24.7444 37.2234C24.7457 36.5143 24.9854 35.9134 25.4635 35.4208C25.9416 34.9282 26.5273 34.6833 27.2207 34.686C27.914 34.6887 28.5004 34.9343 28.9798 35.4228C29.4592 35.9114 29.6982 36.5115 29.6969 37.2234C29.6956 37.9352 29.4559 38.5361 28.9778 39.0259C28.4997 39.5158 27.914 39.7608 27.2207 39.7608ZM39.1067 39.7608C38.4134 39.7608 37.827 39.5152 37.3476 39.0239C36.8682 38.5327 36.6291 37.9325 36.6304 37.2234C36.6318 36.5143 36.8715 35.9134 37.3496 35.4208C37.8276 34.9282 38.4134 34.6833 39.1067 34.686C39.8001 34.6887 40.3864 34.9343 40.8658 35.4228C41.3452 35.9114 41.5843 36.5115 41.583 37.2234C41.5816 37.9352 41.3419 38.5361 40.8639 39.0259C40.3858 39.5158 39.8001 39.7608 39.1067 39.7608Z" fill="#61463E"/>
</g>
<defs>
<clipPath id="clip0_23_25518">
<rect width="47.5442" height="48.7181" fill="white" transform="translate(9.39145 8.80447)"/>
</clipPath>
</defs>
</svg>
