<svg width="220" height="226" viewBox="0 0 220 226" fill="none" xmlns="http://www.w3.org/2000/svg">
<g filter="url(#filter0_d_56_8)">
<ellipse cx="110" cy="109" rx="106" ry="109" fill="white"/>
</g>
<g clip-path="url(#clip0_56_8)">
<path d="M89.5 131.042C87.1083 131.042 85.0857 130.215 83.432 128.561C81.7783 126.908 80.9538 124.887 80.9583 122.5C80.9629 120.113 81.7897 118.09 83.4388 116.432C85.0879 114.774 87.1083 113.949 89.5 113.958C91.8917 113.968 93.9143 114.794 95.568 116.439C97.2217 118.083 98.0462 120.104 98.0417 122.5C98.0371 124.896 97.2103 126.919 95.5612 128.568C93.9121 130.217 91.8917 131.042 89.5 131.042ZM130.5 131.042C128.108 131.042 126.086 130.215 124.432 128.561C122.778 126.908 121.954 124.887 121.958 122.5C121.963 120.113 122.79 118.09 124.439 116.432C126.088 114.774 128.108 113.949 130.5 113.958C132.892 113.968 134.914 114.794 136.568 116.439C138.222 118.083 139.046 120.104 139.042 122.5C139.037 124.896 138.21 126.919 136.561 128.568C134.912 130.217 132.892 131.042 130.5 131.042ZM110 170.333C125.261 170.333 138.188 165.038 148.779 154.446C159.371 143.854 164.667 130.928 164.667 115.667C164.667 112.933 164.496 110.287 164.154 107.726C163.812 105.166 163.186 102.688 162.275 100.292C159.883 100.861 157.492 101.289 155.1 101.576C152.708 101.863 150.203 102.005 147.583 102C137.219 102 127.425 99.7793 118.2 95.3376C108.975 90.8959 101.117 84.689 94.625 76.7168C90.9806 85.6001 85.7713 93.3172 78.9972 99.8681C72.2231 106.419 64.3351 111.344 55.3333 114.642V115.667C55.3333 130.928 60.6292 143.854 71.2208 154.446C81.8125 165.038 94.7389 170.333 110 170.333ZM110 184C100.547 184 91.6639 182.207 83.35 178.622C75.0361 175.037 67.8042 170.167 61.6542 164.013C55.5042 157.858 50.6366 150.626 47.0513 142.317C43.4661 134.007 41.6712 125.124 41.6667 115.667C41.6667 112.364 41.8944 109.091 42.35 105.847C42.8056 102.604 43.4889 99.4991 44.4 96.5334C39.5028 93.5723 35.5463 89.5589 32.5305 84.4931C29.5147 79.4273 28.0046 73.8171 28 67.6626C28 58.2098 31.3028 50.1806 37.9083 43.5751C44.5139 36.9695 52.5431 33.6667 61.9958 33.6667C68.0319 33.6667 73.5852 35.12 78.6555 38.0264C83.7258 40.9329 87.7962 44.9463 90.8667 50.0667C93.8278 49.1556 96.9324 48.4723 100.181 48.0167C103.429 47.5612 106.702 47.3334 110 47.3334C119.453 47.3334 128.336 49.1283 136.65 52.7181C144.964 56.3079 152.196 61.1755 158.346 67.3209C164.496 73.4664 169.366 80.6983 172.956 89.0168C176.545 97.3352 178.338 106.219 178.333 115.667C178.329 125.115 176.534 133.998 172.949 142.317C169.363 150.635 164.496 157.867 158.346 164.013C152.196 170.158 144.964 175.028 136.65 178.622C128.336 182.217 119.453 184.009 110 184Z" fill="#61463E"/>
</g>
<defs>
<filter id="filter0_d_56_8" x="0" y="0" width="220" height="226" filterUnits="userSpaceOnUse" color-interpolation-filters="sRGB">
<feFlood flood-opacity="0" result="BackgroundImageFix"/>
<feColorMatrix in="SourceAlpha" type="matrix" values="0 0 0 0 0 0 0 0 0 0 0 0 0 0 0 0 0 0 127 0" result="hardAlpha"/>
<feOffset dy="4"/>
<feGaussianBlur stdDeviation="2"/>
<feComposite in2="hardAlpha" operator="out"/>
<feColorMatrix type="matrix" values="0 0 0 0 0 0 0 0 0 0 0 0 0 0 0 0 0 0 0.25 0"/>
<feBlend mode="normal" in2="BackgroundImageFix" result="effect1_dropShadow_56_8"/>
<feBlend mode="normal" in="SourceGraphic" in2="effect1_dropShadow_56_8" result="shape"/>
</filter>
<clipPath id="clip0_56_8">
<rect width="164" height="164" fill="white" transform="translate(28 20)"/>
</clipPath>
</defs>
</svg>
