<svg width="220" height="226" viewBox="0 0 220 226" fill="none" xmlns="http://www.w3.org/2000/svg">
<g filter="url(#filter0_d_56_9)">
<ellipse cx="110" cy="109" rx="106" ry="109" fill="white"/>
</g>
<path d="M109.5 41.5C72.47 41.5 42.4167 71.74 42.4167 109C42.4167 146.26 72.47 176.5 109.5 176.5C146.53 176.5 176.583 146.26 176.583 109C176.583 71.74 146.53 41.5 109.5 41.5ZM109.5 163C79.9163 163 55.8334 138.768 55.8334 109V108.798C71.3296 107.312 78.8429 98.065 84.9475 85.78C86.0879 83.4175 88.3688 82 90.985 82H128.082C130.631 82 132.912 83.4175 134.053 85.7125C140.09 97.8625 147.402 107.245 163.167 108.73V108.932C163.167 138.768 139.084 163 109.5 163Z" fill="#61463E"/>
<path d="M89.375 124.188C94.0061 124.188 97.7604 120.41 97.7604 115.75C97.7604 111.09 94.0061 107.312 89.375 107.312C84.7438 107.312 80.9896 111.09 80.9896 115.75C80.9896 120.41 84.7438 124.188 89.375 124.188Z" fill="#61463E"/>
<path d="M129.625 124.188C134.256 124.188 138.01 120.41 138.01 115.75C138.01 111.09 134.256 107.312 129.625 107.312C124.994 107.312 121.24 111.09 121.24 115.75C121.24 120.41 124.994 124.188 129.625 124.188Z" fill="#61463E"/>
<defs>
<filter id="filter0_d_56_9" x="0" y="0" width="220" height="226" filterUnits="userSpaceOnUse" color-interpolation-filters="sRGB">
<feFlood flood-opacity="0" result="BackgroundImageFix"/>
<feColorMatrix in="SourceAlpha" type="matrix" values="0 0 0 0 0 0 0 0 0 0 0 0 0 0 0 0 0 0 127 0" result="hardAlpha"/>
<feOffset dy="4"/>
<feGaussianBlur stdDeviation="2"/>
<feComposite in2="hardAlpha" operator="out"/>
<feColorMatrix type="matrix" values="0 0 0 0 0 0 0 0 0 0 0 0 0 0 0 0 0 0 0.25 0"/>
<feBlend mode="normal" in2="BackgroundImageFix" result="effect1_dropShadow_56_9"/>
<feBlend mode="normal" in="SourceGraphic" in2="effect1_dropShadow_56_9" result="shape"/>
</filter>
</defs>
</svg>
