<svg width="220" height="226" viewBox="0 0 220 226" fill="none" xmlns="http://www.w3.org/2000/svg">
<g filter="url(#filter0_d_56_10)">
<ellipse cx="110" cy="109" rx="106" ry="109" fill="white"/>
</g>
<path d="M89.625 124.188C87.3063 124.188 85.3453 123.371 83.742 121.737C82.1388 120.104 81.3393 118.108 81.3438 115.75C81.3482 113.392 82.1498 111.394 83.7486 109.756C85.3475 108.118 87.3063 107.304 89.625 107.313C91.9438 107.322 93.9048 108.138 95.508 109.763C97.1113 111.387 97.9107 113.383 97.9063 115.75C97.9018 118.117 97.1002 120.115 95.5014 121.744C93.9026 123.373 91.9438 124.188 89.625 124.188ZM129.375 124.188C127.056 124.188 125.095 123.371 123.492 121.737C121.889 120.104 121.089 118.108 121.094 115.75C121.098 113.392 121.9 111.394 123.499 109.756C125.097 108.118 127.056 107.304 129.375 107.313C131.694 107.322 133.655 108.138 135.258 109.763C136.861 111.387 137.661 113.383 137.656 115.75C137.652 118.117 136.85 120.115 135.251 121.744C133.653 123.373 131.694 124.188 129.375 124.188ZM109.5 163C124.296 163 136.828 157.769 147.097 147.306C157.366 136.844 162.5 124.075 162.5 109C162.5 106.3 162.334 103.686 162.003 101.157C161.672 98.6275 161.065 96.1795 160.181 93.8125C157.863 94.375 155.544 94.798 153.225 95.0815C150.906 95.365 148.477 95.5045 145.938 95.5C135.89 95.5 126.394 93.3063 117.45 88.9188C108.506 84.5313 100.888 78.4 94.5938 70.525C91.0604 79.3 86.01 86.923 79.4424 93.394C72.8748 99.865 65.2273 104.73 56.5 107.988V109C56.5 124.075 61.6344 136.844 71.9031 147.306C82.1719 157.769 94.7042 163 109.5 163ZM109.5 176.5C100.335 176.5 91.7229 174.729 83.6625 171.188C75.6021 167.646 68.5906 162.836 62.6281 156.756C56.6656 150.677 51.9464 143.533 48.4705 135.325C44.9946 127.117 43.2544 118.342 43.25 109C43.2456 99.658 44.9858 90.883 48.4705 82.675C51.9553 74.467 56.6745 67.3233 62.6281 61.2438C68.5818 55.1643 75.5933 50.356 83.6625 46.819C91.7318 43.282 100.344 41.509 109.5 41.5C118.656 41.491 127.268 43.264 135.338 46.819C143.407 50.374 150.418 55.1823 156.372 61.2438C162.326 67.3053 167.047 74.449 170.536 82.675C174.025 90.901 175.763 99.676 175.75 109C175.737 118.324 173.997 127.099 170.53 135.325C167.062 143.551 162.343 150.695 156.372 156.756C150.401 162.818 143.389 167.628 135.338 171.188C127.286 174.747 118.673 176.518 109.5 176.5Z" fill="#61463E"/>
<defs>
<filter id="filter0_d_56_10" x="0" y="0" width="220" height="226" filterUnits="userSpaceOnUse" color-interpolation-filters="sRGB">
<feFlood flood-opacity="0" result="BackgroundImageFix"/>
<feColorMatrix in="SourceAlpha" type="matrix" values="0 0 0 0 0 0 0 0 0 0 0 0 0 0 0 0 0 0 127 0" result="hardAlpha"/>
<feOffset dy="4"/>
<feGaussianBlur stdDeviation="2"/>
<feComposite in2="hardAlpha" operator="out"/>
<feColorMatrix type="matrix" values="0 0 0 0 0 0 0 0 0 0 0 0 0 0 0 0 0 0 0.25 0"/>
<feBlend mode="normal" in2="BackgroundImageFix" result="effect1_dropShadow_56_10"/>
<feBlend mode="normal" in="SourceGraphic" in2="effect1_dropShadow_56_10" result="shape"/>
</filter>
</defs>
</svg>
