<svg width="32" height="33" viewBox="0 0 32 33" fill="none" xmlns="http://www.w3.org/2000/svg">
<g clip-path="url(#clip0_23_25461)" filter="url(#filter0_i_23_25461)">
<path d="M16 0C7.16344 0 0 7.3873 0 16.5C0 25.6127 7.16344 33 16 33C24.8366 33 32 25.6127 32 16.5C32 7.3873 24.8366 0 16 0ZM7.81251 10.1171H24.1875V12.4918L16 17.3057L7.81251 12.4918V10.1171ZM7.81251 14.0105L11.9824 16.4617L7.81251 20.9694V14.0105ZM24.1875 14.0105V20.9694L20.0176 16.4617L24.1875 14.0105ZM13.1289 17.1365L16 18.8243L18.8711 17.1365L24.1875 22.8829H7.81251L13.1289 17.1365Z" fill="#7D5A50"/>
</g>
<defs>
<filter id="filter0_i_23_25461" x="0" y="0" width="32" height="37" filterUnits="userSpaceOnUse" color-interpolation-filters="sRGB">
<feFlood flood-opacity="0" result="BackgroundImageFix"/>
<feBlend mode="normal" in="SourceGraphic" in2="BackgroundImageFix" result="shape"/>
<feColorMatrix in="SourceAlpha" type="matrix" values="0 0 0 0 0 0 0 0 0 0 0 0 0 0 0 0 0 0 127 0" result="hardAlpha"/>
<feOffset dy="4"/>
<feGaussianBlur stdDeviation="2"/>
<feComposite in2="hardAlpha" operator="arithmetic" k2="-1" k3="1"/>
<feColorMatrix type="matrix" values="0 0 0 0 0 0 0 0 0 0 0 0 0 0 0 0 0 0 0.25 0"/>
<feBlend mode="normal" in2="shape" result="effect1_innerShadow_23_25461"/>
</filter>
<clipPath id="clip0_23_25461">
<rect width="32" height="33" fill="white"/>
</clipPath>
</defs>
</svg>
