<svg width="25" height="25" viewBox="0 0 25 25" fill="none" xmlns="http://www.w3.org/2000/svg">
<path d="M19.0626 21.4218L19.4672 3.42635C19.4707 3.24414 19.4245 3.06442 19.3335 2.90654C19.2425 2.74865 19.1101 2.61858 18.9507 2.53032C18.7912 2.44206 18.6107 2.39896 18.4286 2.40565C18.2465 2.41234 18.0697 2.46857 17.9171 2.56829L4.71811 11.2738C4.17086 11.6346 4.15068 12.5324 4.68113 12.9184L17.4756 22.2083C17.6231 22.3158 17.7973 22.3809 17.9793 22.3963C18.1612 22.4118 18.3439 22.3771 18.5075 22.296C18.671 22.215 18.8093 22.0906 18.9072 21.9365C19.0051 21.7823 19.0588 21.6043 19.0626 21.4218Z" fill="#D0BFBA"/>
</svg>
