<svg width="198" height="48" viewBox="0 0 198 48" fill="none" xmlns="http://www.w3.org/2000/svg">
<g filter="url(#filter0_d_26_597)">
<rect x="4" width="190" height="40" rx="10" fill="#E5B299"/>
</g>
<path d="M73.0441 12.8105C73.7928 12.8105 74.4992 12.9375 75.1633 13.1914C75.8339 13.4453 76.4198 13.7969 76.9211 14.2461C77.4224 14.6953 77.8033 15.2161 78.0637 15.8086C78.1223 15.9388 78.1516 16.0723 78.1516 16.209C78.1516 16.4759 78.0539 16.707 77.8586 16.9023C77.6698 17.0911 77.4419 17.1855 77.175 17.1855C76.9992 17.1855 76.8234 17.1302 76.6477 17.0195C76.4719 16.9023 76.3482 16.7624 76.2766 16.5996C76.0292 16.0397 75.6158 15.5938 75.0363 15.2617C74.4634 14.9297 73.7993 14.7637 73.0441 14.7637C72.673 14.7637 72.2792 14.8092 71.8625 14.9004C71.4523 14.9915 71.065 15.1315 70.7004 15.3203C70.3358 15.5026 70.0396 15.7337 69.8117 16.0137C69.5839 16.2936 69.4699 16.6191 69.4699 16.9902C69.4699 17.2897 69.5676 17.5501 69.7629 17.7715C69.9582 17.9863 70.1763 18.1556 70.4172 18.2793C70.9836 18.5592 71.6086 18.7546 72.2922 18.8652C72.9823 18.9759 73.6789 19.0833 74.382 19.1875C75.0852 19.2917 75.7395 19.474 76.3449 19.7344C76.729 19.8971 77.0969 20.1217 77.4484 20.4082C77.8 20.6947 78.0865 21.043 78.3078 21.4531C78.5292 21.8633 78.6398 22.3451 78.6398 22.8984C78.6398 23.6146 78.4673 24.2428 78.1223 24.7832C77.7772 25.3236 77.3247 25.7728 76.7648 26.1309C76.2049 26.4889 75.5962 26.7591 74.9387 26.9414C74.2876 27.1172 73.6496 27.2051 73.0246 27.2051C72.1783 27.2051 71.384 27.0716 70.6418 26.8047C69.8996 26.5312 69.2518 26.1471 68.6984 25.6523C68.1451 25.151 67.7219 24.5651 67.4289 23.8945C67.3703 23.7643 67.341 23.6341 67.341 23.5039C67.341 23.237 67.4354 23.0091 67.6242 22.8203C67.8195 22.625 68.0507 22.5273 68.3176 22.5273C68.4999 22.5273 68.6789 22.5859 68.8547 22.7031C69.0305 22.8138 69.1509 22.9538 69.216 23.123C69.5025 23.7806 69.9875 24.3014 70.6711 24.6855C71.3547 25.0632 72.1392 25.252 73.0246 25.252C73.578 25.252 74.1346 25.1706 74.6945 25.0078C75.2544 24.8385 75.7232 24.5814 76.1008 24.2363C76.4849 23.8848 76.677 23.4388 76.677 22.8984C76.677 22.5534 76.5598 22.2702 76.3254 22.0488C76.0975 21.821 75.8469 21.6484 75.5734 21.5312C74.9549 21.2643 74.2941 21.082 73.591 20.9844C72.8879 20.8802 72.188 20.7728 71.4914 20.6621C70.7948 20.5449 70.1437 20.3333 69.5383 20.0273C69.024 19.7669 68.5552 19.3893 68.132 18.8945C67.7154 18.3932 67.507 17.7585 67.507 16.9902C67.507 16.3132 67.6698 15.7174 67.9953 15.2031C68.3273 14.6823 68.7635 14.2461 69.3039 13.8945C69.8508 13.5365 70.4497 13.2663 71.1008 13.084C71.7518 12.9017 72.3996 12.8105 73.0441 12.8105ZM85.0898 16.3359C85.9556 16.3359 86.7499 16.5508 87.4726 16.9805C88.1952 17.4102 88.7747 17.9896 89.2109 18.7188C89.6536 19.4414 89.8749 20.2454 89.8749 21.1309C89.8749 21.3132 89.8652 21.4987 89.8456 21.6875C89.8196 21.9284 89.7089 22.1335 89.5136 22.3027C89.3248 22.4655 89.1099 22.5469 88.8691 22.5469L82.0429 22.5566C82.1536 23.0254 82.3619 23.4648 82.6679 23.875C82.9739 24.2852 83.345 24.6172 83.7812 24.8711C84.2239 25.125 84.7056 25.252 85.2265 25.252C85.7864 25.252 86.2877 25.1152 86.7304 24.8418C87.1731 24.5684 87.5181 24.2526 87.7655 23.8945C87.8437 23.7708 87.9609 23.6667 88.1171 23.582C88.2799 23.4974 88.4329 23.4551 88.5761 23.4551C88.843 23.4551 89.0709 23.5527 89.2597 23.748C89.455 23.9434 89.5527 24.1745 89.5527 24.4414C89.5527 24.6497 89.4941 24.8353 89.3769 24.998C88.9732 25.5905 88.4166 26.1048 87.707 26.541C87.0038 26.9707 86.1868 27.1855 85.2558 27.1855C84.5071 27.1855 83.8105 27.0391 83.1659 26.7461C82.5279 26.4531 81.9713 26.0527 81.496 25.5449C81.0208 25.0371 80.6497 24.4544 80.3827 23.7969C80.1223 23.1328 79.9921 22.4329 79.9921 21.6973C79.9921 20.9876 80.1223 20.3138 80.3827 19.6758C80.6431 19.0312 81.0045 18.4583 81.4667 17.957C81.9355 17.4557 82.4791 17.0618 83.0976 16.7754C83.7161 16.4824 84.3801 16.3359 85.0898 16.3359ZM87.8632 20.5938C87.7395 19.9557 87.4205 19.4121 86.9062 18.9629C86.3918 18.5137 85.7864 18.2891 85.0898 18.2891C84.3801 18.2891 83.7519 18.5202 83.205 18.9824C82.6646 19.4447 82.3001 19.985 82.1112 20.6035L87.8632 20.5938ZM96.3248 16.2578C96.8066 16.2578 97.2754 16.3555 97.7311 16.5508C98.1933 16.7396 98.6035 16.9805 98.9616 17.2734C99.3261 17.5599 99.5963 17.8561 99.7721 18.1621L99.8795 17.2246C99.8795 16.9577 99.9577 16.7298 100.114 16.541C100.27 16.3457 100.482 16.248 100.749 16.248C101.016 16.248 101.243 16.3457 101.432 16.541C101.628 16.7298 101.725 16.9577 101.725 17.2246V17.2441L101.706 26.2871C101.706 26.554 101.608 26.7852 101.413 26.9805C101.224 27.1693 100.996 27.2637 100.729 27.2637C100.462 27.2637 100.251 27.1693 100.094 26.9805C99.9381 26.7852 99.86 26.554 99.86 26.2871L99.7526 25.5059C99.414 26.0853 98.9192 26.5182 98.2682 26.8047C97.6172 27.0846 96.9629 27.2246 96.3053 27.2246C95.5696 27.2246 94.8795 27.0814 94.235 26.7949C93.5905 26.502 93.0241 26.1016 92.5358 25.5938C92.0475 25.0859 91.6634 24.5033 91.3834 23.8457C91.11 23.1882 90.9733 22.4948 90.9733 21.7656C90.9733 21.043 91.1067 20.3529 91.3737 19.6953C91.6471 19.0312 92.0247 18.4421 92.5065 17.9277C92.9948 17.4069 93.5612 17 94.2057 16.707C94.8567 16.4076 95.5631 16.2578 96.3248 16.2578ZM99.694 21.7461C99.694 21.1081 99.5442 20.5221 99.2448 19.9883C98.9518 19.4544 98.5514 19.0247 98.0436 18.6992C97.5358 18.3737 96.9564 18.2109 96.3053 18.2109C95.6673 18.2109 95.0911 18.3737 94.5768 18.6992C94.0625 19.0247 93.6556 19.4577 93.3561 19.998C93.0566 20.5319 92.9069 21.1113 92.9069 21.7363C92.9069 22.3678 93.0599 22.9538 93.3659 23.4941C93.6718 24.028 94.082 24.4577 94.5963 24.7832C95.1172 25.1087 95.6901 25.2715 96.3151 25.2715C96.9401 25.2715 97.5065 25.1087 98.0143 24.7832C98.5286 24.4577 98.9355 24.028 99.235 23.4941C99.541 22.9538 99.694 22.3711 99.694 21.7461ZM109.933 17.5371C109.933 18.0579 109.682 18.3477 109.181 18.4062C108.999 18.4258 108.768 18.3672 108.488 18.2305C108.208 18.0872 107.925 18.0156 107.638 18.0156C107.072 18.0156 106.622 18.1621 106.29 18.4551C105.958 18.7415 105.721 19.1289 105.577 19.6172C105.434 20.1055 105.363 20.6523 105.363 21.2578V26.2969C105.363 26.5833 105.275 26.8112 105.099 26.9805C104.93 27.1497 104.692 27.2344 104.386 27.2344C104.087 27.2344 103.849 27.1497 103.673 26.9805C103.497 26.8112 103.41 26.5801 103.41 26.2871V17.293C103.41 17 103.481 16.7591 103.624 16.5703C103.774 16.3815 103.976 16.2871 104.23 16.2871C104.38 16.2871 104.552 16.3522 104.747 16.4824C104.949 16.6061 105.089 16.821 105.167 17.127L105.265 17.8301C105.35 17.6478 105.512 17.4362 105.753 17.1953C105.994 16.9544 106.281 16.7461 106.613 16.5703C106.945 16.388 107.29 16.2969 107.648 16.2969C108.312 16.2969 108.859 16.375 109.288 16.5312C109.718 16.681 109.933 17.0163 109.933 17.5371ZM110.055 21.7363C110.055 21.0137 110.182 20.3268 110.436 19.6758C110.69 19.0247 111.048 18.4453 111.51 17.9375C111.972 17.4297 112.509 17.0293 113.121 16.7363C113.74 16.4434 114.41 16.2969 115.133 16.2969C115.849 16.2969 116.497 16.4368 117.076 16.7168C117.662 16.9902 118.163 17.3548 118.58 17.8105C119.003 18.2598 119.319 18.7513 119.527 19.2852C119.573 19.3958 119.596 19.5195 119.596 19.6562C119.596 19.9232 119.498 20.1543 119.303 20.3496C119.114 20.5384 118.886 20.6328 118.619 20.6328C118.437 20.6328 118.258 20.571 118.082 20.4473C117.906 20.3236 117.783 20.1738 117.711 19.998C117.529 19.5293 117.21 19.1224 116.754 18.7773C116.305 18.4258 115.764 18.25 115.133 18.25C114.54 18.25 114.007 18.416 113.531 18.748C113.063 19.0736 112.691 19.5 112.418 20.0273C112.145 20.5547 112.008 21.1243 112.008 21.7363C112.008 22.3548 112.148 22.9375 112.428 23.4844C112.708 24.0247 113.092 24.4642 113.58 24.8027C114.068 25.1348 114.619 25.3008 115.231 25.3008C115.83 25.3008 116.347 25.151 116.783 24.8516C117.219 24.5456 117.548 24.1908 117.77 23.7871C117.848 23.6439 117.971 23.5234 118.141 23.4258C118.31 23.3216 118.476 23.2695 118.639 23.2695C118.906 23.2695 119.134 23.3672 119.322 23.5625C119.518 23.7513 119.615 23.9792 119.615 24.2461C119.615 24.4089 119.573 24.5684 119.488 24.7246C119.117 25.4082 118.564 26.0007 117.828 26.502C117.093 27.0033 116.227 27.2539 115.231 27.2539C114.488 27.2539 113.802 27.1074 113.17 26.8145C112.545 26.515 111.998 26.1081 111.529 25.5938C111.067 25.0794 110.706 24.4935 110.445 23.8359C110.185 23.1719 110.055 22.472 110.055 21.7363ZM120.899 13.6992C120.899 13.4388 120.994 13.2174 121.182 13.0352C121.371 12.8464 121.602 12.752 121.876 12.752C122.143 12.752 122.371 12.8464 122.559 13.0352C122.755 13.2174 122.852 13.4388 122.852 13.6992V17.957C123.1 17.4297 123.461 17.026 123.936 16.7461C124.412 16.4596 124.871 16.3164 125.313 16.3164C126.335 16.3164 127.169 16.5247 127.813 16.9414C128.464 17.3581 128.943 17.9375 129.249 18.6797C129.555 19.4219 129.708 20.278 129.708 21.248V21.3359L129.698 26.2676V26.2773C129.698 26.5378 129.6 26.7624 129.405 26.9512C129.216 27.1335 128.988 27.2246 128.721 27.2246C128.455 27.2246 128.223 27.1335 128.028 26.9512C127.839 26.7624 127.745 26.5378 127.745 26.2773V26.2676L127.755 21.3848V21.3652C127.755 20.3626 127.589 19.5977 127.257 19.0703C126.925 18.543 126.277 18.2793 125.313 18.2793C124.499 18.2793 123.887 18.5625 123.477 19.1289C123.074 19.6953 122.872 20.4245 122.872 21.3164V26.2871C122.872 26.5475 122.774 26.7721 122.579 26.9609C122.39 27.1432 122.162 27.2344 121.895 27.2344C121.615 27.2344 121.378 27.14 121.182 26.9512C120.994 26.7559 120.899 26.5345 120.899 26.2871V13.6992Z" fill="white"/>
<defs>
<filter id="filter0_d_26_597" x="0" y="0" width="198" height="48" filterUnits="userSpaceOnUse" color-interpolation-filters="sRGB">
<feFlood flood-opacity="0" result="BackgroundImageFix"/>
<feColorMatrix in="SourceAlpha" type="matrix" values="0 0 0 0 0 0 0 0 0 0 0 0 0 0 0 0 0 0 127 0" result="hardAlpha"/>
<feOffset dy="4"/>
<feGaussianBlur stdDeviation="2"/>
<feComposite in2="hardAlpha" operator="out"/>
<feColorMatrix type="matrix" values="0 0 0 0 0 0 0 0 0 0 0 0 0 0 0 0 0 0 0.25 0"/>
<feBlend mode="normal" in2="BackgroundImageFix" result="effect1_dropShadow_26_597"/>
<feBlend mode="normal" in="SourceGraphic" in2="effect1_dropShadow_26_597" result="shape"/>
</filter>
</defs>
</svg>
