<svg width="118" height="39" viewBox="0 0 118 39" fill="none" xmlns="http://www.w3.org/2000/svg">
<g filter="url(#filter0_d_56_7)">
<rect x="4" y="2" width="110" height="31" rx="10" fill="#7D5A50"/>
</g>
<path d="M46.0488 11.8853C46.8496 11.8853 47.5625 12.0757 48.1875 12.4565C48.8125 12.8374 49.2666 13.3403 49.5498 13.9653C49.584 14.0337 49.6011 14.1069 49.6011 14.1851C49.6011 14.3267 49.5498 14.4487 49.4473 14.5513C49.3447 14.6538 49.2227 14.7051 49.0811 14.7051C48.9883 14.7051 48.8931 14.6758 48.7954 14.6172C48.7026 14.5537 48.6367 14.478 48.5977 14.3901C48.3975 13.9409 48.0679 13.5869 47.6089 13.3281C47.1548 13.0645 46.6348 12.9326 46.0488 12.9326C45.7363 12.9326 45.4116 12.9717 45.0747 13.0498C44.7427 13.123 44.4326 13.2354 44.1445 13.3867C43.8613 13.5381 43.6318 13.731 43.4561 13.9653C43.2803 14.1948 43.1924 14.4634 43.1924 14.771C43.1924 15.1274 43.3096 15.418 43.5439 15.6426C43.7783 15.8623 44.0762 16.0356 44.4375 16.1626C44.8037 16.2847 45.1846 16.3799 45.5801 16.4482C45.9805 16.5117 46.3442 16.5654 46.6714 16.6094C47.062 16.6631 47.4502 16.7461 47.8359 16.8584C48.2266 16.9658 48.5806 17.1196 48.8979 17.3198C49.2153 17.5151 49.4692 17.769 49.6597 18.0815C49.855 18.394 49.9526 18.7773 49.9526 19.2314C49.9526 19.7295 49.833 20.1641 49.5938 20.5352C49.3545 20.9014 49.0396 21.2065 48.6489 21.4507C48.2632 21.6899 47.8408 21.8706 47.3818 21.9927C46.9277 22.1099 46.4834 22.1685 46.0488 22.1685C45.1455 22.1685 44.3325 21.9634 43.6099 21.5532C42.8872 21.1431 42.3721 20.584 42.0645 19.876C42.0352 19.7979 42.0205 19.7271 42.0205 19.6636C42.0205 19.522 42.0718 19.3999 42.1743 19.2974C42.2769 19.1948 42.3989 19.1436 42.5405 19.1436C42.6382 19.1436 42.7334 19.1753 42.8262 19.2388C42.9238 19.3022 42.9897 19.3779 43.0239 19.4658C43.2534 19.9883 43.6367 20.3984 44.1738 20.6963C44.7158 20.9941 45.3408 21.1431 46.0488 21.1431C46.3613 21.1431 46.6836 21.1064 47.0156 21.0332C47.3525 20.9551 47.665 20.8403 47.9531 20.689C48.2412 20.5327 48.4731 20.335 48.6489 20.0957C48.8296 19.8516 48.9199 19.5635 48.9199 19.2314C48.9199 18.8408 48.793 18.5405 48.5391 18.3306C48.29 18.1157 47.9824 17.9595 47.6162 17.8618C47.25 17.7593 46.8887 17.686 46.5322 17.6421C46.0537 17.5737 45.5581 17.4883 45.0454 17.3857C44.5376 17.2832 44.064 17.1343 43.6245 16.939C43.1851 16.7437 42.8286 16.4727 42.5552 16.126C42.2817 15.7744 42.145 15.3203 42.145 14.7637C42.145 14.2949 42.2622 13.8823 42.4966 13.5259C42.731 13.1646 43.0386 12.8643 43.4194 12.625C43.8052 12.3809 44.2275 12.1978 44.6865 12.0757C45.1455 11.9487 45.5996 11.8853 46.0488 11.8853ZM55.3652 22.1465C54.6572 22.1465 54.0151 21.9707 53.439 21.6191C52.8677 21.2676 52.4136 20.7988 52.0767 20.2129C51.7397 19.6221 51.5713 18.9751 51.5713 18.272C51.5713 17.603 51.73 16.9854 52.0474 16.4189C52.3696 15.8477 52.8042 15.3887 53.3511 15.042C53.8979 14.6953 54.5083 14.522 55.1821 14.522C55.8022 14.522 56.3711 14.6758 56.8887 14.9834C57.4111 15.291 57.8286 15.7061 58.1411 16.2285C58.4585 16.7461 58.6172 17.3223 58.6172 17.957C58.6172 18.1816 58.5757 18.3745 58.4927 18.5356C58.4146 18.6968 58.2681 18.7773 58.0532 18.7773H52.7212C52.7993 19.1826 52.958 19.5586 53.1973 19.9053C53.4414 20.2471 53.7466 20.5229 54.1128 20.7329C54.4839 20.9429 54.8965 21.0479 55.3506 21.0479C55.7363 21.0479 56.1147 20.9624 56.4858 20.7915C56.8569 20.6206 57.1621 20.3862 57.4014 20.0884C57.5088 19.9468 57.6528 19.876 57.8335 19.876C57.9849 19.876 58.1143 19.9297 58.2217 20.0371C58.3291 20.1445 58.3828 20.2739 58.3828 20.4253C58.3828 20.5571 58.3389 20.6768 58.251 20.7842C57.8994 21.2139 57.4673 21.5483 56.9546 21.7876C56.4468 22.0269 55.917 22.1465 55.3652 22.1465ZM57.4966 17.6934C57.4526 17.3125 57.3232 16.9658 57.1084 16.6533C56.8936 16.3359 56.6201 16.0845 56.2881 15.8989C55.9561 15.7134 55.5898 15.6206 55.1895 15.6206C54.7744 15.6206 54.396 15.7158 54.0542 15.9062C53.7124 16.0967 53.4268 16.3481 53.1973 16.6606C52.9727 16.9731 52.8188 17.3174 52.7358 17.6934H57.4966ZM60.7778 14.478C60.9292 14.478 61.0513 14.5317 61.144 14.6392C61.2417 14.7466 61.2905 14.876 61.2905 15.0273L61.3271 15.8989C61.5029 15.6841 61.7056 15.4692 61.9351 15.2544C62.1694 15.0396 62.4355 14.8613 62.7334 14.7197C63.0361 14.5732 63.373 14.5 63.7441 14.5C64.3936 14.5 64.9136 14.666 65.3042 14.998C65.6997 15.3301 65.9854 15.7671 66.1611 16.3091C66.3418 16.8462 66.4321 17.4272 66.4321 18.0522L66.4248 21.6045C66.4248 21.7559 66.3711 21.8853 66.2637 21.9927C66.1562 22.1001 66.0269 22.1538 65.8755 22.1538C65.7241 22.1538 65.5947 22.1001 65.4873 21.9927C65.3799 21.8804 65.3262 21.7485 65.3262 21.5972L65.3335 18.0522C65.3335 17.6177 65.2896 17.2148 65.2017 16.8438C65.1138 16.4727 64.9551 16.1724 64.7256 15.9429C64.4961 15.7134 64.1689 15.5986 63.7441 15.5986C62.9482 15.5986 62.3477 15.811 61.9424 16.2358C61.5371 16.6606 61.3345 17.2588 61.3345 18.0303V21.6191C61.3345 21.7705 61.2808 21.8999 61.1733 22.0073C61.0659 22.1147 60.9365 22.1685 60.7852 22.1685C60.6338 22.1685 60.5044 22.1123 60.397 22C60.2896 21.8926 60.2358 21.7632 60.2358 21.6118L60.2285 15.0347C60.2285 14.8784 60.2798 14.7466 60.3823 14.6392C60.4897 14.5317 60.6216 14.478 60.7778 14.478ZM71.4639 22.1538C70.7998 22.1538 70.2114 21.978 69.6987 21.6265C69.186 21.2749 68.7832 20.8135 68.4902 20.2422C68.1973 19.666 68.0508 19.0483 68.0508 18.3892C68.0508 17.8911 68.1362 17.4102 68.3071 16.9463C68.478 16.4824 68.7197 16.0698 69.0322 15.7085C69.3447 15.3423 69.7134 15.0518 70.1382 14.8369C70.563 14.6221 71.0269 14.5146 71.5298 14.5146C72.0083 14.5146 72.4453 14.6343 72.8408 14.8735C73.2363 15.1128 73.583 15.3887 73.8809 15.7012V12.3906C73.8809 12.2393 73.9346 12.1099 74.042 12.0024C74.1494 11.895 74.2788 11.8413 74.4302 11.8413C74.5864 11.8413 74.7158 11.895 74.8184 12.0024C74.9258 12.1099 74.9795 12.2393 74.9795 12.3906V21.6118C74.9795 21.7632 74.9258 21.8926 74.8184 22C74.7109 22.1074 74.5815 22.1611 74.4302 22.1611C74.2788 22.1611 74.1543 22.1074 74.0566 22C73.9639 21.8926 73.9175 21.7632 73.9175 21.6118L73.8809 20.9087C73.6025 21.1919 73.2583 21.4702 72.8481 21.7437C72.438 22.0171 71.9766 22.1538 71.4639 22.1538ZM71.4858 21.0552C71.9839 21.0552 72.4111 20.9209 72.7676 20.6523C73.124 20.3838 73.3975 20.0371 73.5879 19.6123C73.7783 19.1875 73.8735 18.7456 73.8735 18.2866C73.8735 17.8276 73.7783 17.3955 73.5879 16.9902C73.4023 16.585 73.1338 16.2554 72.7822 16.0015C72.4307 15.7427 72.0083 15.6133 71.5151 15.6133C71.0415 15.6133 70.6289 15.75 70.2773 16.0234C69.9258 16.292 69.6523 16.6411 69.457 17.0708C69.2617 17.4956 69.1641 17.9424 69.1641 18.4111C69.1641 18.875 69.2593 19.3096 69.4497 19.7148C69.645 20.1152 69.916 20.4399 70.2627 20.689C70.6143 20.9331 71.022 21.0552 71.4858 21.0552Z" fill="white"/>
<defs>
<filter id="filter0_d_56_7" x="0" y="0" width="118" height="39" filterUnits="userSpaceOnUse" color-interpolation-filters="sRGB">
<feFlood flood-opacity="0" result="BackgroundImageFix"/>
<feColorMatrix in="SourceAlpha" type="matrix" values="0 0 0 0 0 0 0 0 0 0 0 0 0 0 0 0 0 0 127 0" result="hardAlpha"/>
<feOffset dy="2"/>
<feGaussianBlur stdDeviation="2"/>
<feComposite in2="hardAlpha" operator="out"/>
<feColorMatrix type="matrix" values="0 0 0 0 0 0 0 0 0 0 0 0 0 0 0 0 0 0 0.25 0"/>
<feBlend mode="normal" in2="BackgroundImageFix" result="effect1_dropShadow_56_7"/>
<feBlend mode="normal" in="SourceGraphic" in2="effect1_dropShadow_56_7" result="shape"/>
</filter>
</defs>
</svg>
