<svg width="32" height="32" viewBox="0 0 32 32" fill="none" xmlns="http://www.w3.org/2000/svg">
<g clip-path="url(#clip0_23_25452)" filter="url(#filter0_i_23_25452)">
<mask id="mask0_23_25452" style="mask-type:luminance" maskUnits="userSpaceOnUse" x="0" y="0" width="32" height="32">
<path d="M0 0H32V32H0V0Z" fill="white"/>
</mask>
<g mask="url(#mask0_23_25452)">
<path fill-rule="evenodd" clip-rule="evenodd" d="M0 16.0893C0 24.0453 5.77733 30.6587 13.3333 32V20.444H9.33333V16H13.3333V12.444C13.3333 8.444 15.9107 6.22267 19.556 6.22267C20.7107 6.22267 21.956 6.4 23.1107 6.57733V10.6667H21.0667C19.1107 10.6667 18.6667 11.644 18.6667 12.8893V16H22.9333L22.2227 20.444H18.6667V32C26.2227 30.6587 32 24.0453 32 16.0893C32 7.24 24.8 0 16 0C7.2 0 0 7.24 0 16.0893Z" fill="#7D5A50"/>
</g>
</g>
<defs>
<filter id="filter0_i_23_25452" x="0" y="0" width="32" height="36" filterUnits="userSpaceOnUse" color-interpolation-filters="sRGB">
<feFlood flood-opacity="0" result="BackgroundImageFix"/>
<feBlend mode="normal" in="SourceGraphic" in2="BackgroundImageFix" result="shape"/>
<feColorMatrix in="SourceAlpha" type="matrix" values="0 0 0 0 0 0 0 0 0 0 0 0 0 0 0 0 0 0 127 0" result="hardAlpha"/>
<feOffset dy="4"/>
<feGaussianBlur stdDeviation="2"/>
<feComposite in2="hardAlpha" operator="arithmetic" k2="-1" k3="1"/>
<feColorMatrix type="matrix" values="0 0 0 0 0 0 0 0 0 0 0 0 0 0 0 0 0 0 0.25 0"/>
<feBlend mode="normal" in2="shape" result="effect1_innerShadow_23_25452"/>
</filter>
<clipPath id="clip0_23_25452">
<rect width="32" height="32" fill="white"/>
</clipPath>
</defs>
</svg>
