<svg width="238" height="46" viewBox="0 0 238 46" fill="none" xmlns="http://www.w3.org/2000/svg">
<g clip-path="url(#clip0_90_6)" filter="url(#filter0_d_90_6)">
<path d="M201.395 36H237.002L226.829 23.9151L237.002 11.832L201.395 11.832C200.491 11.8422 199.628 12.2569 198.993 12.9859C198.357 13.7149 198 14.6994 198 15.7255L198.002 15.8677V15.8603V31.9698L198 32.1046C198 33.1304 198.357 34.1146 198.992 34.8436C199.627 35.5726 200.49 35.9875 201.393 35.9982L201.395 36Z" fill="#DCA286"/>
</g>
<g clip-path="url(#clip1_90_6)" filter="url(#filter1_d_90_6)">
<path d="M36.6054 12L0.998375 12L11.1709 24.0849L0.998375 36.168L36.6054 36.168C37.5085 36.1578 38.3717 35.7431 39.0073 35.0141C39.6429 34.2851 39.9996 33.3006 40 32.2745L39.9984 32.1323V32.1397V16.0302L40 15.8954C39.9996 14.8696 39.6431 13.8854 39.0078 13.1564C38.3726 12.4274 37.5099 12.0125 36.607 12.0018L36.6054 12Z" fill="#DCA286"/>
</g>
<g filter="url(#filter2_d_90_6)">
<rect x="24" y="2" width="190" height="38" rx="10" fill="#E5B299"/>
</g>
<path d="M73.2714 27.0759C72.7482 26.4177 72.36 25.6498 72.1068 24.7722C71.8536 23.8945 71.7271 23 71.7271 22.0886C71.7271 21.1772 71.8536 20.2827 72.1068 19.4051C72.36 18.5274 72.7482 17.7595 73.2714 17.1013C74.419 15.6667 76.014 14.9494 78.0562 14.9494C79.3051 14.9494 80.4697 15.211 81.5498 15.7342C81.8368 15.8692 81.9802 16.0633 81.9802 16.3165C81.9802 16.5696 81.9211 16.7722 81.803 16.9241C81.7017 17.0591 81.5836 17.1266 81.4486 17.1266C81.3136 17.1266 81.1026 17.0759 80.8157 16.9747C80.5287 16.8565 80.1237 16.7468 79.6005 16.6456C79.0773 16.5274 78.5625 16.4684 78.0562 16.4684C77.5498 16.4684 77.0688 16.5527 76.6131 16.7215C76.1743 16.8734 75.7777 17.0844 75.4233 17.3544C75.0857 17.6245 74.7988 17.9451 74.5625 18.3165C74.3262 18.6709 74.1321 19.0591 73.9802 19.481C73.6933 20.308 73.5498 21.1857 73.5498 22.1139C73.5498 23.5654 73.8874 24.8228 74.5625 25.8861C75.3389 27.1013 76.5456 27.7089 78.1828 27.7089C78.9085 27.7089 79.7017 27.5485 80.5625 27.2278C80.8494 27.1097 81.0773 27.0084 81.246 26.9241C81.4317 26.8059 81.6005 26.7468 81.7524 26.7468C81.9211 26.7468 82.0562 26.8143 82.1574 26.9494C82.2756 27.0675 82.3347 27.2194 82.3347 27.4051C82.3347 27.5738 82.2671 27.7426 82.1321 27.9114C81.9971 28.0633 81.8114 28.2068 81.5752 28.3418C81.3557 28.4768 81.0941 28.6034 80.7903 28.7215C80.5034 28.8228 80.1996 28.9156 79.879 29C79.2714 29.135 78.6722 29.2025 78.0815 29.2025C76.0055 29.2025 74.4022 28.4937 73.2714 27.0759ZM90.1794 23.1013L91.2933 23.1266V22.2911C91.2933 20.9747 90.5507 20.3165 89.0655 20.3165C88.3735 20.3165 87.8756 20.3755 87.5718 20.4937C87.2174 20.6287 86.8798 20.789 86.5591 20.9747C86.2385 21.1435 86.0022 21.2278 85.8503 21.2278C85.7153 21.2278 85.5887 21.1772 85.4705 21.0759C85.3693 20.9578 85.3186 20.8228 85.3186 20.6709C85.3186 20.519 85.3861 20.384 85.5212 20.2658C86.3313 19.4895 87.5296 19.1013 89.1161 19.1013C90.8883 19.1013 92.0275 19.7089 92.5338 20.9241C92.7195 21.346 92.8123 21.8439 92.8123 22.4177L92.787 28.3165C92.787 28.5527 92.711 28.73 92.5591 28.8481C92.4072 28.9494 92.23 29 92.0275 29C91.8418 29 91.6731 28.9494 91.5212 28.8481C91.3693 28.73 91.2933 28.5612 91.2933 28.3418V27.4304C90.8883 28.2911 90.1541 28.8481 89.0908 29.1013C88.7532 29.1688 88.3819 29.2025 87.9769 29.2025C87.5887 29.2025 87.192 29.135 86.787 29C86.3819 28.8819 86.0275 28.6962 85.7237 28.443C85.0823 27.9367 84.7617 27.2278 84.7617 26.3165C84.7617 24.173 86.5676 23.1013 90.1794 23.1013ZM91.2933 24.2658C91.0064 24.2827 90.6773 24.2911 90.306 24.2911C89.9515 24.2911 89.5887 24.2996 89.2174 24.3165C88.8629 24.3333 88.5085 24.3755 88.1541 24.443C87.8165 24.5105 87.5127 24.6118 87.2427 24.7468C86.6351 25.0844 86.3313 25.5907 86.3313 26.2658C86.3313 26.8059 86.5423 27.2447 86.9642 27.5823C87.3018 27.8354 87.7912 27.9789 88.4326 28.0127C89.2089 28.0127 89.8672 27.7679 90.4072 27.2785C90.9642 26.789 91.2596 26.0717 91.2933 25.1266V24.2658ZM100.887 28.4177C100.887 28.9409 100.288 29.2025 99.0893 29.2025C98.178 29.2025 97.5282 28.9662 97.14 28.4937C96.7349 27.9705 96.5324 27.1013 96.5324 25.8861V20.4937H95.3678C95.1653 20.4937 95.005 20.4346 94.8868 20.3165C94.7856 20.1983 94.7349 20.0633 94.7349 19.9114C94.7349 19.7595 94.7856 19.6245 94.8868 19.5063C94.9881 19.3882 95.1484 19.3291 95.3678 19.3291H96.583L96.7096 16.5696C96.7265 16.3671 96.8109 16.2068 96.9628 16.0886C97.1147 15.9705 97.275 15.9114 97.4438 15.9114C97.8826 15.9114 98.102 16.1224 98.102 16.5443V19.3291H99.8488C100.051 19.3291 100.203 19.3882 100.305 19.5063C100.423 19.6245 100.482 19.7595 100.482 19.9114C100.482 20.0633 100.423 20.1983 100.305 20.3165C100.203 20.4346 100.051 20.4937 99.8488 20.4937H98.102V25.0253C98.102 26.2574 98.1442 27.0169 98.2286 27.3038C98.3299 27.5738 98.4564 27.7595 98.6083 27.8608C98.7771 27.962 99.005 28.0127 99.2919 28.0127L100.33 27.9114C100.516 27.9114 100.651 27.9705 100.735 28.0886C100.836 28.2068 100.887 28.3165 100.887 28.4177ZM111.326 23.8608C111.326 24.0127 111.275 24.1477 111.174 24.2658C111.072 24.3671 110.912 24.4177 110.693 24.4177H103.705C103.739 25.6667 104.068 26.5696 104.693 27.1266C105.351 27.7173 106.11 28.0127 106.971 28.0127C107.883 28.0127 108.853 27.6751 109.883 27C110.018 26.8987 110.153 26.8481 110.288 26.8481C110.44 26.8481 110.558 26.8987 110.642 27C110.726 27.1013 110.769 27.2025 110.769 27.3038C110.769 27.5063 110.701 27.6751 110.566 27.8101C109.57 28.7384 108.33 29.2025 106.845 29.2025C105.461 29.2025 104.338 28.7553 103.478 27.8608C102.532 26.8987 102.06 25.6667 102.06 24.1646C102.06 22.7637 102.456 21.5907 103.25 20.6456C104.11 19.616 105.258 19.1013 106.693 19.1013C108.195 19.1013 109.351 19.557 110.161 20.4684C110.904 21.3122 111.292 22.443 111.326 23.8608ZM109.781 23.4051C109.714 22.4599 109.427 21.7089 108.921 21.1519C108.414 20.5949 107.68 20.3165 106.718 20.3165C105.874 20.3165 105.182 20.6203 104.642 21.2278C104.119 21.8186 103.824 22.5443 103.756 23.4051H109.781ZM117.601 20.3165C115.694 20.3165 114.741 21.5907 114.741 24.1392C114.741 25.3544 115.036 26.2996 115.627 26.9747C116.133 27.5823 116.791 27.8861 117.601 27.8861C118.428 27.8861 119.129 27.5654 119.703 26.9241C120.327 26.2489 120.639 25.3376 120.639 24.1899C120.639 22.4515 120.108 21.27 119.044 20.6456C118.656 20.4262 118.175 20.3165 117.601 20.3165ZM117.196 19.1013C118.833 19.1013 120.006 19.7511 120.715 21.0506V19.9873C120.732 19.7679 120.808 19.6076 120.943 19.5063C121.095 19.3882 121.264 19.3291 121.449 19.3291C121.635 19.3291 121.804 19.3882 121.956 19.5063C122.108 19.6245 122.184 19.8017 122.184 20.038V29.2025C122.184 31.1603 121.281 32.384 119.475 32.8734C118.918 33.0253 118.352 33.1013 117.779 33.1013C117.205 33.1013 116.741 33.0675 116.386 33C116.032 32.9494 115.711 32.8734 115.424 32.7722C114.85 32.5527 114.411 32.2658 114.108 31.9114C113.973 31.7764 113.905 31.6329 113.905 31.481C113.905 31.3291 113.956 31.1941 114.057 31.0759C114.175 30.9747 114.302 30.9241 114.437 30.9241C114.572 30.9241 114.707 30.9494 114.842 31C115.027 31.1013 115.205 31.2025 115.373 31.3038C115.559 31.4051 115.762 31.4979 115.981 31.5823C116.42 31.7342 116.901 31.8101 117.424 31.8101C117.964 31.8101 118.42 31.7679 118.791 31.6835C119.179 31.5992 119.508 31.4641 119.779 31.2785C120.352 30.8734 120.639 30.2236 120.639 29.3291V27.1013C120.15 28.0295 119.373 28.6287 118.31 28.8987C117.99 28.9662 117.669 29 117.348 29C115.914 29 114.817 28.519 114.057 27.557C113.382 26.6962 113.044 25.5823 113.044 24.2152C113.044 21.903 113.812 20.3418 115.348 19.5316C115.871 19.2447 116.487 19.1013 117.196 19.1013ZM124.367 24.1899C124.367 23.5823 124.46 22.9662 124.645 22.3418C124.848 21.7173 125.152 21.1688 125.557 20.6962C126.434 19.6329 127.649 19.1013 129.202 19.1013C130.721 19.1013 131.936 19.6329 132.848 20.6962C133.641 21.6245 134.038 22.7806 134.038 24.1646C134.038 25.5316 133.641 26.6878 132.848 27.6329C131.953 28.6793 130.738 29.2025 129.202 29.2025C127.633 29.2025 126.417 28.6793 125.557 27.6329C124.763 26.6709 124.367 25.5232 124.367 24.1899ZM126.038 24.1899C126.038 24.5949 126.097 25.0253 126.215 25.481C126.333 25.9367 126.519 26.3502 126.772 26.7215C127.362 27.5823 128.173 28.0127 129.202 28.0127C130.249 28.0127 131.059 27.5823 131.633 26.7215C132.105 25.9958 132.341 25.1435 132.341 24.1646C132.341 23.2025 132.105 22.3502 131.633 21.6076C131.076 20.7468 130.265 20.3165 129.202 20.3165C128.156 20.3165 127.346 20.7468 126.772 21.6076C126.282 22.3333 126.038 23.1941 126.038 24.1899ZM137.233 19.3291C137.723 19.3291 137.968 19.5738 137.968 20.0633V20.9241C138.389 19.7089 139.276 19.1013 140.626 19.1013C140.879 19.1013 141.073 19.1772 141.208 19.3291C141.343 19.4641 141.411 19.616 141.411 19.7848C141.411 19.9536 141.343 20.1055 141.208 20.2405C141.09 20.3755 140.854 20.443 140.499 20.443C140.145 20.443 139.799 20.519 139.461 20.6709C139.141 20.8059 138.87 21 138.651 21.2532C138.195 21.8101 137.968 22.5527 137.968 23.481V28.2658C137.968 28.5021 137.883 28.6878 137.714 28.8228C137.546 28.9409 137.385 29 137.233 29C137.081 29 136.955 28.9916 136.854 28.9747C136.769 28.9409 136.693 28.8987 136.626 28.8481C136.474 28.7131 136.398 28.519 136.398 28.2658V20.0633C136.398 19.827 136.474 19.6498 136.626 19.5316C136.795 19.3966 136.997 19.3291 137.233 19.3291ZM145.16 15.962C145.16 16.1983 145.067 16.4093 144.882 16.5949C144.696 16.7637 144.434 16.8481 144.097 16.8481C143.759 16.8481 143.498 16.7637 143.312 16.5949C143.126 16.4093 143.033 16.1983 143.033 15.962C143.033 15.7257 143.126 15.5148 143.312 15.3291C143.498 15.1435 143.759 15.0506 144.097 15.0506C144.434 15.0506 144.696 15.1435 144.882 15.3291C145.067 15.5148 145.16 15.7257 145.16 15.962ZM143.337 20.1139C143.337 19.8608 143.413 19.6667 143.565 19.5316C143.734 19.3966 143.894 19.3291 144.046 19.3291C144.198 19.3291 144.316 19.346 144.401 19.3797C144.485 19.4135 144.561 19.4641 144.628 19.5316C144.797 19.6498 144.882 19.8439 144.882 20.1139V28.2152C144.882 28.4684 144.797 28.6624 144.628 28.7975C144.46 28.9325 144.274 29 144.071 29C143.886 29 143.717 28.9409 143.565 28.8228C143.413 28.6878 143.337 28.4852 143.337 28.2152V20.1139ZM156.58 23.8608C156.58 24.0127 156.529 24.1477 156.428 24.2658C156.326 24.3671 156.166 24.4177 155.947 24.4177H148.959C148.993 25.6667 149.322 26.5696 149.947 27.1266C150.605 27.7173 151.364 28.0127 152.225 28.0127C153.137 28.0127 154.107 27.6751 155.137 27C155.272 26.8987 155.407 26.8481 155.542 26.8481C155.693 26.8481 155.812 26.8987 155.896 27C155.98 27.1013 156.023 27.2025 156.023 27.3038C156.023 27.5063 155.955 27.6751 155.82 27.8101C154.824 28.7384 153.584 29.2025 152.099 29.2025C150.715 29.2025 149.592 28.7553 148.731 27.8608C147.786 26.8987 147.314 25.6667 147.314 24.1646C147.314 22.7637 147.71 21.5907 148.504 20.6456C149.364 19.616 150.512 19.1013 151.947 19.1013C153.449 19.1013 154.605 19.557 155.415 20.4684C156.158 21.3122 156.546 22.443 156.58 23.8608ZM155.035 23.4051C154.968 22.4599 154.681 21.7089 154.174 21.1519C153.668 20.5949 152.934 20.3165 151.972 20.3165C151.128 20.3165 150.436 20.6203 149.896 21.2278C149.373 21.8186 149.077 22.5443 149.01 23.4051H155.035ZM162.425 20.3165C160.956 20.3165 160.222 20.7806 160.222 21.7089C160.222 22.1139 160.425 22.4346 160.83 22.6709C161.134 22.8228 161.758 23.0169 162.703 23.2532C163.648 23.4726 164.366 23.6582 164.855 23.8101C165.345 23.962 165.75 24.2405 166.07 24.6456C166.391 25.0506 166.551 25.5316 166.551 26.0886C166.551 26.6287 166.433 27.1013 166.197 27.5063C165.961 27.8945 165.64 28.2152 165.235 28.4684C164.475 28.9578 163.488 29.2025 162.273 29.2025C161.345 29.2025 160.492 29.0506 159.716 28.7468C159.362 28.5949 159.075 28.4262 158.855 28.2405C158.636 28.0549 158.526 27.8861 158.526 27.7342C158.526 27.5654 158.585 27.4304 158.703 27.3291C158.821 27.211 158.956 27.1519 159.108 27.1519C159.26 27.1519 159.437 27.2025 159.64 27.3038C159.843 27.3882 160.087 27.481 160.374 27.5823C161.151 27.8692 161.783 28.0127 162.273 28.0127C162.762 28.0127 163.151 27.9789 163.438 27.9114C163.724 27.8439 163.986 27.7342 164.222 27.5823C164.729 27.2616 164.982 26.8228 164.982 26.2658C164.982 25.6245 164.535 25.1519 163.64 24.8481C163.302 24.73 162.94 24.6371 162.551 24.5696C162.163 24.4852 161.783 24.4008 161.412 24.3165C161.041 24.2321 160.686 24.1308 160.349 24.0127C160.028 23.8945 159.733 23.7342 159.463 23.5316C158.906 23.1266 158.627 22.5443 158.627 21.7848C158.627 20.8565 159.024 20.1561 159.817 19.6835C160.475 19.2954 161.362 19.1013 162.475 19.1013C163.556 19.1013 164.433 19.2785 165.108 19.6329C165.665 19.9198 165.944 20.2236 165.944 20.5443C165.944 20.6793 165.885 20.7975 165.767 20.8987C165.648 21 165.53 21.0506 165.412 21.0506C165.193 21.0506 165.007 21.0084 164.855 20.9241C164.72 20.8228 164.568 20.7384 164.4 20.6709C164.248 20.5865 164.07 20.519 163.868 20.4684C163.48 20.3671 162.999 20.3165 162.425 20.3165Z" fill="white"/>
<defs>
<filter id="filter0_d_90_6" x="191" y="10" width="47" height="32" filterUnits="userSpaceOnUse" color-interpolation-filters="sRGB">
<feFlood flood-opacity="0" result="BackgroundImageFix"/>
<feColorMatrix in="SourceAlpha" type="matrix" values="0 0 0 0 0 0 0 0 0 0 0 0 0 0 0 0 0 0 127 0" result="hardAlpha"/>
<feOffset dx="-3" dy="2"/>
<feGaussianBlur stdDeviation="2"/>
<feComposite in2="hardAlpha" operator="out"/>
<feColorMatrix type="matrix" values="0 0 0 0 0 0 0 0 0 0 0 0 0 0 0 0 0 0 0.25 0"/>
<feBlend mode="normal" in2="BackgroundImageFix" result="effect1_dropShadow_90_6"/>
<feBlend mode="normal" in="SourceGraphic" in2="effect1_dropShadow_90_6" result="shape"/>
</filter>
<filter id="filter1_d_90_6" x="0" y="10" width="47" height="32" filterUnits="userSpaceOnUse" color-interpolation-filters="sRGB">
<feFlood flood-opacity="0" result="BackgroundImageFix"/>
<feColorMatrix in="SourceAlpha" type="matrix" values="0 0 0 0 0 0 0 0 0 0 0 0 0 0 0 0 0 0 127 0" result="hardAlpha"/>
<feOffset dx="3" dy="2"/>
<feGaussianBlur stdDeviation="2"/>
<feComposite in2="hardAlpha" operator="out"/>
<feColorMatrix type="matrix" values="0 0 0 0 0 0 0 0 0 0 0 0 0 0 0 0 0 0 0.25 0"/>
<feBlend mode="normal" in2="BackgroundImageFix" result="effect1_dropShadow_90_6"/>
<feBlend mode="normal" in="SourceGraphic" in2="effect1_dropShadow_90_6" result="shape"/>
</filter>
<filter id="filter2_d_90_6" x="20" y="0" width="198" height="46" filterUnits="userSpaceOnUse" color-interpolation-filters="sRGB">
<feFlood flood-opacity="0" result="BackgroundImageFix"/>
<feColorMatrix in="SourceAlpha" type="matrix" values="0 0 0 0 0 0 0 0 0 0 0 0 0 0 0 0 0 0 127 0" result="hardAlpha"/>
<feOffset dy="2"/>
<feGaussianBlur stdDeviation="2"/>
<feComposite in2="hardAlpha" operator="out"/>
<feColorMatrix type="matrix" values="0 0 0 0 0 0 0 0 0 0 0 0 0 0 0 0 0 0 0.25 0"/>
<feBlend mode="normal" in2="BackgroundImageFix" result="effect1_dropShadow_90_6"/>
<feBlend mode="normal" in="SourceGraphic" in2="effect1_dropShadow_90_6" result="shape"/>
</filter>
<clipPath id="clip0_90_6">
<rect width="24" height="39" fill="white" transform="matrix(0 -1 1 0 198 36)"/>
</clipPath>
<clipPath id="clip1_90_6">
<rect width="24" height="39" fill="white" transform="matrix(0 1 -1 0 40 12)"/>
</clipPath>
</defs>
</svg>
